<svg width="22" height="22" viewBox="0 0 22 22" fill="none" xmlns="http://www.w3.org/2000/svg">
<g id="location 1" clip-path="url(#clip0_109_183)">
<g id="Outline">
<path id="Vector" d="M10.8029 3.25037C10.8606 3.29082 10.9295 3.31252 11 3.31252C11.0705 3.31252 11.1394 3.29082 11.1971 3.25037C11.85 2.76943 12.4473 2.2174 12.9782 1.60445C14.1577 0.247925 14.7812 -1.18203 14.7812 -2.53125C14.7812 -3.5341 14.3829 -4.49588 13.6737 -5.205C12.9646 -5.91412 12.0028 -6.3125 11 -6.3125C9.99715 -6.3125 9.03537 -5.91412 8.32625 -5.205C7.61713 -4.49588 7.21875 -3.5341 7.21875 -2.53125C7.21875 -1.18203 7.84227 0.247925 9.02185 1.60445C9.55268 2.2174 10.15 2.76943 10.8029 3.25037ZM11 -5.625C11.8202 -5.62408 12.6066 -5.29784 13.1866 -4.71784C13.7666 -4.13785 14.0928 -3.35148 14.0938 -2.53125C14.0938 -0.0716758 11.7097 1.98159 11 2.53833C10.2892 1.98227 7.90625 -0.0669494 7.90625 -2.53125C7.90717 -3.35148 8.23341 -4.13785 8.81341 -4.71784C9.3934 -5.29784 10.1798 -5.62408 11 -5.625Z" fill="#6C63FF"/>
<path id="Vector_2" d="M6.43359 18.5444L6.63572 17.8872L7.32337 18.0987L7.12124 18.7559L6.43359 18.5444Z" fill="#6C63FF"/>
<path id="Vector_3" d="M7.80835 18.9663L8.01049 18.309L8.69813 18.5205L8.496 19.1778L7.80835 18.9663Z" fill="#6C63FF"/>
<path id="Vector_4" d="M9.18359 19.3904L9.38572 18.7331L10.0734 18.9446L9.87124 19.6019L9.18359 19.3904Z" fill="#6C63FF"/>
<path id="Vector_5" d="M20.0386 1.609L14.8824 0.0224609L14.6801 0.679582L18.7687 1.93754L11 4.32789L3.23125 1.93754L7.31973 0.679582L7.11752 0.0224609L1.96127 1.609C1.89103 1.63064 1.82958 1.67422 1.78594 1.73335C1.74229 1.79248 1.71874 1.86404 1.71875 1.93754V11.2188C1.71875 11.2923 1.74232 11.3639 1.78599 11.423C1.82966 11.4821 1.89114 11.5257 1.96139 11.5473L10.8989 14.2973C10.9648 14.3176 11.0352 14.3176 11.1011 14.2973L20.0386 11.5473C20.1089 11.5257 20.1703 11.4821 20.214 11.423C20.2577 11.3639 20.2812 11.2923 20.2812 11.2188V1.93754C20.2812 1.86403 20.2577 1.79245 20.214 1.73332C20.1703 1.67419 20.1089 1.63062 20.0386 1.609ZM2.40625 2.40297L10.6562 4.94144V13.5034L2.40625 10.9649V2.40297ZM11.3438 13.5034V4.94144L19.5938 2.40297V10.9649L11.3438 13.5034Z" fill="#6C63FF"/>
<path id="Vector_6" d="M15.3699 10.895L16.0575 10.6835L16.2596 11.3408L15.572 11.5523L15.3699 10.895Z" fill="#6C63FF"/>
<path id="Vector_7" d="M16.7445 10.4731L17.4322 10.2617L17.6343 10.919L16.9466 11.1304L16.7445 10.4731Z" fill="#6C63FF"/>
<path id="Vector_8" d="M18.1206 10.0488L18.8083 9.83736L19.0104 10.4946L18.3227 10.7061L18.1206 10.0488Z" fill="#6C63FF"/>
<path id="Vector_9" d="M8.25 14.5697C8.34117 14.5697 8.4286 14.5335 8.49307 14.469C8.55753 14.4045 8.59375 14.3171 8.59375 14.2259V12.5072C8.59375 12.4337 8.57018 12.3621 8.52651 12.303C8.48284 12.2438 8.42136 12.2003 8.35111 12.1786L4.91361 11.1209C4.86219 11.1051 4.80778 11.1016 4.75474 11.1106C4.70171 11.1196 4.65154 11.141 4.60827 11.173C4.565 11.2049 4.52983 11.2466 4.5056 11.2946C4.48136 11.3427 4.46874 11.3957 4.46875 11.4495V13.1682C4.46875 13.2418 4.49232 13.3133 4.53599 13.3725C4.57966 13.4316 4.64114 13.4752 4.71139 13.4968L8.14889 14.5545C8.18165 14.5646 8.21573 14.5697 8.25 14.5697ZM7.90625 13.7605L5.15625 12.9144V11.9149L7.90625 12.761V13.7605Z" fill="#6C63FF"/>
<path id="Vector_10" d="M17.5312 6.16849V4.44974C17.5313 4.39595 17.5186 4.3429 17.4944 4.29487C17.4702 4.24684 17.435 4.20517 17.3917 4.17321C17.3485 4.14124 17.2983 4.11988 17.2453 4.11084C17.1922 4.1018 17.1378 4.10534 17.0864 4.12116L13.6489 5.17888C13.5786 5.2005 13.5172 5.24408 13.4735 5.30321C13.4298 5.36234 13.4063 5.43391 13.4063 5.50742V7.22617C13.4062 7.27997 13.4189 7.33301 13.4431 7.38104C13.4673 7.42907 13.5025 7.47075 13.5458 7.50271C13.589 7.53467 13.6392 7.55603 13.6922 7.56507C13.7453 7.57411 13.7997 7.57057 13.8511 7.55475L17.2886 6.49703C17.3589 6.47541 17.4203 6.43184 17.464 6.37271C17.5077 6.31358 17.5312 6.242 17.5312 6.16849ZM16.8438 5.91463L14.0938 6.76073V5.76128L16.8438 4.91518V5.91463Z" fill="#6C63FF"/>
</g>
</g>
<defs>
<clipPath id="clip0_109_183">
<rect width="22" height="22" fill="white"/>
</clipPath>
</defs>
</svg>
